<?xml version="1.0" encoding="UTF-8" standalone="no"?>
<!-- Created with Inkscape (http://www.inkscape.org/) -->

<svg
   xmlns:dc="http://purl.org/dc/elements/1.1/"
   xmlns:cc="http://creativecommons.org/ns#"
   xmlns:rdf="http://www.w3.org/1999/02/22-rdf-syntax-ns#"
   xmlns:svg="http://www.w3.org/2000/svg"
   xmlns="http://www.w3.org/2000/svg"
   xmlns:xlink="http://www.w3.org/1999/xlink"
   xmlns:sodipodi="http://sodipodi.sourceforge.net/DTD/sodipodi-0.dtd"
   xmlns:inkscape="http://www.inkscape.org/namespaces/inkscape"
   width="15.326183mm"
   height="16.857203mm"
   viewBox="0 0 15.326183 16.857202"
   version="1.1"
   id="svg8"
   inkscape:version="0.92.5 (2060ec1f9f, 2020-04-08)"
   sodipodi:docname="liveryselector-logo-small.svg">
  <defs
     id="defs2">
    <linearGradient
       inkscape:collect="always"
       id="linearGradient6114">
      <stop
         style="stop-color:#2c4260;stop-opacity:1;"
         offset="0"
         id="stop6368" />
      <stop
         id="stop6373"
         offset="0.86665255"
         style="stop-color:#bcc3cb;stop-opacity:1" />
      <stop
         style="stop-color:#bcc3cb;stop-opacity:0.94117647"
         offset="1"
         id="stop6370" />
    </linearGradient>
    <linearGradient
       inkscape:collect="always"
       xlink:href="#linearGradient6114"
       id="linearGradient6116"
       x1="47.997707"
       y1="72.0765"
       x2="47.468769"
       y2="72.077019"
       gradientUnits="userSpaceOnUse"
       gradientTransform="matrix(1.2859436,0,0,1.0619333,-4.3512046,0.00352808)" />
  </defs>
  <sodipodi:namedview
     id="base"
     pagecolor="#ffffff"
     bordercolor="#666666"
     borderopacity="1.0"
     inkscape:pageopacity="0.0"
     inkscape:pageshadow="2"
     inkscape:zoom="2.7941686"
     inkscape:cx="191.68068"
     inkscape:cy="-32.492514"
     inkscape:document-units="mm"
     inkscape:current-layer="layer1"
     showgrid="true"
     inkscape:window-width="1600"
     inkscape:window-height="850"
     inkscape:window-x="0"
     inkscape:window-y="0"
     inkscape:window-maximized="1">
    <inkscape:grid
       type="xygrid"
       id="grid3713"
       originx="-6.4742669"
       originy="-231.42376" />
  </sodipodi:namedview>
  <metadata
     id="metadata5">
    <rdf:RDF>
      <cc:Work
         rdf:about="">
        <dc:format>image/svg+xml</dc:format>
        <dc:type
           rdf:resource="http://purl.org/dc/dcmitype/StillImage" />
        <dc:title />
      </cc:Work>
    </rdf:RDF>
  </metadata>
  <g
     inkscape:label="Layer 1"
     inkscape:groupmode="layer"
     id="layer1"
     transform="translate(-6.4742668,-48.719007)">
    <g
       aria-label="s"
       transform="scale(1.0292615,0.97157037)"
       style="font-style:normal;font-variant:normal;font-weight:normal;font-stretch:normal;font-size:10.88205528px;line-height:1.25;font-family:SquareFont;-inkscape-font-specification:'SquareFont, Normal';font-variant-ligatures:normal;font-variant-caps:normal;font-variant-numeric:normal;font-feature-settings:normal;text-align:start;letter-spacing:0px;word-spacing:0px;writing-mode:lr-tb;text-anchor:start;fill:#2c4260;fill-opacity:1;stroke:#000000;stroke-width:0.27205136;stroke-opacity:1"
       id="text20">
      <path
         d="m 15.64361,64.161649 v -4.436776 h 5.239115 v 1.307122 h -3.772588 v 1.886294 h 3.772588 v 4.436775 H 15.64361 v -1.307121 h 3.862917 v -1.886294 z"
         style="font-style:normal;font-variant:normal;font-weight:normal;font-stretch:normal;font-size:10.88205528px;font-family:SquareFont;-inkscape-font-specification:'SquareFont, Normal';font-variant-ligatures:normal;font-variant-caps:normal;font-variant-numeric:normal;font-feature-settings:normal;text-align:start;writing-mode:lr-tb;text-anchor:start;fill:#2c4260;fill-opacity:1;stroke:#000000;stroke-width:0.27205136;stroke-opacity:1"
         id="path2964" />
    </g>
    <path
       style="fill:#bcc3cb;fill-opacity:1;stroke:#000000;stroke-width:0.27981663px;stroke-linecap:butt;stroke-linejoin:miter;stroke-opacity:1"
       d="m 7.4080039,65.226619 c 3.1738811,10e-7 5.1319191,0.203789 8.4675081,0.203789 l 0.264609,-0.466809 0.26461,-0.78906 c -0.793829,0 -1.776,-0.01621 -2.691565,-0.01783 -2.554929,-0.0046 -4.9327612,0.0155 -4.4528947,-0.771223 l 4.2337527,-14.466105 -2.910705,0.789058 c -0.6025285,4.953573 -1.852267,6.312481 -3.9691439,14.466105 0,1.315099 0.2649654,0.787436 0.5295749,1.050456 z"
       id="path882"
       inkscape:connector-curvature="0"
       sodipodi:nodetypes="ccccscccccc" />
    <rect
       style="fill:url(#linearGradient6116);fill-opacity:1;stroke:none;stroke-width:0.52551425;stroke-miterlimit:0;stroke-dasharray:none;stroke-opacity:1"
       id="rect958"
       width="1.4773182"
       height="1.1944956"
       x="56.439808"
       y="76.076096"
       ry="0"
       transform="matrix(0.99999977,6.8490537e-4,-0.53524299,0.84469814,0,0)" />
    <g
       id="g2381"
       transform="matrix(0.02550011,0,0,0.0239875,16.440003,51.641549)">
      <ellipse
         ry="130.21167"
         rx="130.01347"
         cy="54.080547"
         cx="63.597355"
         id="path1650"
         style="fill:#bcc3cb;fill-opacity:1;stroke:none;stroke-width:0.39456668;stroke-miterlimit:0;stroke-dasharray:none;stroke-opacity:1" />
      <g
         transform="matrix(0.26458333,0,0,0.26458333,-68.829723,-78.342005)"
         style="fill:#ffffff;fill-opacity:1"
         id="g1070">
        <g
           style="fill:#ffffff;fill-opacity:1"
           id="g1068"
           transform="matrix(0.1,0,0,-0.1,0,512)">
          <path
             inkscape:connector-curvature="0"
             style="fill:#ffffff;fill-opacity:1"
             id="path1044"
             d="M 4635.7,5016.9 C 3994.9,4961.3 3415.6,4802 2861.1,4529.6 2337.4,4272.5 2003.6,4038.5 1591.1,3639.4 768.1,2841.3 290.4,1893.6 123.5,721.4 90.9,493.1 92.8,-260.9 125.4,-496.8 c 153.5,-1114.6 633.1,-2091.1 1402.4,-2858.5 777,-773.1 1734.3,-1243.1 2868.1,-1404.3 222.5,-30.7 961.2,-30.7 1199,0 920.9,122.8 1782.3,487.3 2486.3,1053.2 734.8,592.8 1283.5,1387 1582.7,2290.6 170.8,518 236,940 236,1532.8 1.9,602.4 -59.5,997.6 -237.9,1534.8 -257.1,778.9 -646.5,1398.5 -1248.9,1985.6 -750.1,731 -1661.3,1180 -2722.2,1343 -193.8,28.8 -867.2,53.7 -1055.2,36.5 z M 5485.6,4802 c 61.4,-59.5 65.2,-97.8 11.5,-143.9 -63.3,-55.6 -36.5,-80.6 76.7,-74.8 90.2,5.8 97.8,3.8 97.8,-36.5 0,-46 -49.9,-113.2 -84.4,-113.2 -49.9,0 -182.3,-287.8 -184.2,-397.1 0,-32.6 -11.5,-72.9 -24.9,-86.3 -15.3,-13.4 -30.7,-80.6 -38.4,-147.7 -11.5,-134.3 -57.5,-218.7 -122.8,-228.3 -49.9,-7.7 -71,-111.3 -32.6,-166.9 53.7,-76.7 34.5,-147.7 -72.9,-253.2 -107.4,-105.5 -209.1,-159.2 -301.2,-159.2 -32.6,0 -65.2,-11.5 -72.9,-26.9 -7.7,-13.4 -86.3,-61.4 -170.7,-103.6 -147.7,-74.8 -237.9,-151.6 -237.9,-205.3 0,-13.4 -13.4,-34.5 -30.7,-49.9 -17.3,-13.4 -55.6,-74.8 -86.3,-136.2 -30.7,-61.4 -63.3,-111.3 -71,-111.3 -32.6,0 -101.7,63.3 -132.4,120.9 -46,86.3 -67.1,441.2 -32.6,510.3 15.3,26.9 26.9,55.6 26.9,61.4 0,7.7 36.5,48 78.7,92.1 74.8,74.8 78.7,82.5 48,113.2 -44.1,49.9 -38.4,124.7 21.1,249.4 36.5,80.6 51.8,149.6 59.5,264.8 7.7,142 3.8,161.1 -34.5,199.5 -34.5,34.5 -53.7,38.4 -117,28.8 l -74.8,-13.4 v 76.7 c 0,49.9 11.5,86.3 38.4,109.4 21.1,19.2 44.1,69.1 49.9,109.4 11.5,65.2 19.2,74.8 92.1,94 42.2,11.5 99.8,28.8 126.6,34.5 32.6,9.6 51.8,34.5 63.3,80.6 9.6,36.5 26.9,71 38.4,78.7 11.5,7.7 17.3,19.2 9.6,24.9 -7.7,7.7 -46,-9.6 -86.3,-36.5 -38.4,-26.9 -80.6,-49.9 -88.2,-49.9 -49.9,0 -151.6,-69.1 -184.2,-124.7 -21.1,-36.5 -72.9,-86.3 -115.1,-113.2 -42.2,-26.9 -97.8,-84.4 -120.9,-126.6 -46,-80.6 -90.2,-95.9 -130.4,-48 -13.4,15.3 -40.3,28.8 -61.4,28.8 -19.2,0 -40.3,13.4 -46,28.8 -7.7,15.3 -19.2,23 -28.8,17.3 -26.9,-15.3 -21.1,65.2 7.7,86.3 11.5,9.6 57.5,49.9 99.8,88.3 l 76.7,69.1 -61.4,-11.5 c -34.5,-7.7 -63.3,-5.8 -63.3,1.9 0,7.7 30.7,76.7 67.1,153.5 55.6,115.1 76.7,142 130.4,159.2 174.6,53.7 667.6,136.2 824.9,136.2 94,0 115.1,-24.9 67.1,-74.8 -21.1,-21.1 -9.6,-23 57.6,-17.3 67.1,5.8 80.6,1.9 80.6,-26.9 0,-51.8 28.8,-42.2 55.6,17.3 17.3,38.4 26.9,46 40.3,24.9 13.4,-21.1 34.5,-15.3 118.9,24.9 142,69.1 145.8,69.1 274.3,57.6 88.1,-7.8 128.4,-23.1 168.7,-59.6 z M 3542.2,4589.1 c 0,-30.7 11.5,-59.5 28.8,-67.1 15.3,-5.8 28.8,-23 28.8,-38.4 0,-40.3 -88.3,-95.9 -126.6,-80.6 -28.8,11.5 -26.9,17.3 11.5,59.5 24.9,26.9 40.3,53.7 32.6,59.5 -7.7,7.7 -38.4,-13.4 -69.1,-48 -78.7,-82.5 -95.9,-74.8 -69.1,30.7 17.3,71 34.5,95.9 78.7,115.1 78.6,32.6 84.4,30.7 84.4,-30.7 z m 3077.2,-199.5 c 15.4,-24.9 11.5,-38.4 -17.3,-59.5 -122.8,-88.3 -117,-72.9 -59.5,-172.7 44.1,-76.7 48,-90.2 21.1,-99.8 -17.3,-7.7 -46,1.9 -65.2,21.1 -34.5,30.7 -38.4,28.8 -61.4,-36.5 -13.4,-38.4 -30.7,-69.1 -38.4,-69.1 -44.1,0 -69.1,24.9 -61.4,59.5 7.7,23 0,36.5 -17.3,36.5 -36.4,0 -97.8,155.4 -80.6,199.5 7.7,19.2 32.6,30.7 67.1,30.7 42.2,0 61.4,13.4 78.7,48 11.5,26.9 32.6,48 44.1,48 13.4,0 34.5,11.5 46.1,26.9 28.9,32.6 115.2,13.4 144,-32.6 z m -3576,-11.6 c -9.6,-21.1 -19.2,-42.2 -19.2,-48 0,-21.1 69.1,-11.5 103.6,13.4 26.9,19.2 53.7,21.1 109.4,5.8 42.2,-9.6 74.8,-24.9 74.8,-32.6 0,-5.8 -19.2,-36.5 -42.2,-65.2 -30.7,-38.4 -40.3,-74.8 -36.5,-126.6 3.8,-69.1 -34.5,-128.5 -51.8,-76.7 -5.8,15.4 -23,40.3 -42.2,59.5 -19.2,19.2 -40.3,69.1 -48,113.2 -13.4,84.4 -38.4,101.7 -57.6,40.3 -15.3,-49.9 -53.7,-69.1 -193.8,-94 -142,-26.9 -184.2,-13.4 -176.5,49.9 3.8,34.5 34.5,61.4 117,107.4 76.7,40.3 117,51.8 124.7,38.4 9.6,-15.3 28.8,-11.5 61.4,13.4 65.4,49.8 103.8,49.8 76.9,1.8 z m 418.2,-197.6 c -5.8,-59.5 -1.9,-63.3 74.8,-72.9 99.8,-15.3 107.4,-21.1 90.2,-84.4 -26.9,-113.2 -172.7,-136.2 -283.9,-48 -57.5,46 -63.3,103.6 -19.2,170.7 74.8,111.4 143.9,128.6 138.1,34.6 z m -936.2,-53.7 c 23,-13.4 21.1,-24.9 -17.3,-65.2 -36.4,-38.4 -42.2,-53.7 -23,-76.7 17.3,-21.1 17.3,-28.8 -1.9,-36.4 -19.2,-5.8 -19.2,-13.4 -1.9,-32.6 19.2,-21.1 44.1,-11.5 128.5,44.1 105.5,71 165,88.2 165,51.8 0,-11.5 -55.6,-103.6 -124.7,-207.2 -105.5,-155.4 -124.7,-199.5 -124.7,-266.7 0,-69.1 -5.8,-82.5 -36.5,-82.5 -21.1,0 -44.1,-7.7 -49.9,-19.2 -7.7,-11.5 -30.7,-9.6 -65.2,9.6 -46,23 -59.5,23 -90.2,1.9 -32.6,-24.9 -32.6,-28.8 -1.9,-76.7 44.1,-65.2 115.1,-82.5 176.5,-42.2 26.9,17.3 48,40.3 48,49.9 0,9.6 46,53.7 103.6,97.8 82.5,63.3 109.4,99.8 128.5,165 11.5,46 32.6,90.2 44.1,97.8 11.5,7.7 32.6,34.5 46,61.4 13.4,26.9 53.7,80.6 90.2,120.9 l 63.3,72.9 117,-34.5 117,-36.5 -44.1,-42.2 c -24.9,-23 -59.5,-42.2 -74.8,-42.2 -65.2,0 -145.8,-95.9 -188,-220.6 -23,-69.1 -49.9,-124.7 -59.5,-124.7 -36.5,0 -40.3,-59.5 -7.7,-95.9 28.8,-32.6 30.7,-46 11.5,-88.3 -38.4,-84.4 -5.8,-76.7 94,21.1 103.6,101.7 117,142 57.6,157.3 -46,11.5 -48,30.7 -9.6,71 15.3,15.4 28.8,49.9 28.8,76.7 0,86.3 245.6,282 318.5,253.2 17.3,-5.8 23,-21.1 17.3,-30.7 -7.7,-13.4 3.8,-17.3 36.5,-7.7 32.6,7.7 67.1,0 99.8,-21.1 48,-30.7 49.9,-38.4 38.4,-145.8 -11.5,-95.9 -7.7,-115.1 17.3,-124.7 19.2,-7.7 28.8,-26.9 23,-49.9 -7.7,-23 1.9,-40.3 21.1,-48 17.3,-7.7 38.4,-21.1 46,-32.6 21.1,-30.7 -3.8,-153.5 -34.5,-170.7 -34.5,-21.1 -34.5,-88.3 1.9,-101.7 17.3,-7.7 23,-28.8 17.3,-63.3 -7.7,-34.5 0,-63.3 19.2,-84.4 28.8,-28.8 26.9,-36.5 -28.8,-97.8 -71,-82.5 -88.2,-84.4 -113.2,-21.1 -38.4,97.8 -95.9,32.6 -59.5,-67.1 13.4,-42.2 13.4,-72.9 -1.9,-105.5 -28.8,-63.3 -188,-138.1 -188,-88.3 0,11.5 -36.5,59.5 -80.6,111.3 -57.6,67.1 -90.2,90.2 -122.8,86.3 -49.9,-7.7 -72.9,21.1 -55.6,71 13.4,42.2 74.8,63.3 103.6,34.5 15.4,-15.4 51.8,13.4 126.6,94 88.3,95.9 103.6,122.8 97.8,170.7 -15.4,107.4 -57.5,193.8 -103.6,216.8 -46,21.1 -99.8,13.4 -99.8,-17.3 0,-9.6 -15.3,-49.9 -32.6,-90.2 -17.3,-38.4 -49.9,-122.8 -72.9,-186.1 l -38.4,-115.1 -90.2,-5.8 c -51.8,-3.8 -92.1,-13.4 -92.1,-23 0,-9.6 21.1,-40.3 46,-71 55.6,-65.2 34.5,-109.3 -55.6,-113.2 -30.7,-1.9 -76.7,-9.6 -101.7,-17.3 -40.3,-13.4 -44.1,-9.6 -30.7,40.3 5.8,30.7 28.8,88.3 49.9,130.4 19.2,40.3 32.6,76.7 28.8,80.6 -11.5,13.4 -178.4,-103.6 -245.6,-172.7 -34.5,-36.5 -107.4,-97.8 -161.1,-138.1 -111.3,-80.6 -184.2,-191.8 -201.4,-310.8 -13.4,-82.5 -13.4,-82.5 124.7,-220.6 l 140,-138.1 -17.3,-101.7 c -7.7,-55.6 -9.6,-115.1 -3.8,-130.5 23,-59.5 72.9,-15.3 111.3,94 30.7,88.2 57.6,126.6 132.4,184.2 124.7,99.8 136.2,122.8 94,195.7 l -34.5,57.6 59.5,51.8 c 44.1,36.5 69.1,82.5 86.3,153.5 32.6,130.5 51.8,145.8 147.7,118.9 57.6,-13.4 78.7,-32.6 88.3,-67.1 7.7,-30.7 24.9,-48 48,-48 53.7,0 61.4,-44.1 19.2,-107.4 -42.2,-65.2 -48,-134.3 -9.6,-147.7 40.3,-15.4 136.2,53.7 163.1,118.9 40.3,95.9 61.4,49.9 48,-103.6 -15.3,-163.1 -3.8,-224.5 53.7,-282 46,-46 55.6,-95.9 59.5,-312.7 3.8,-143.9 5.8,-153.5 48,-159.2 34.5,-5.8 42.2,-19.2 42.2,-78.7 0,-119 -105.5,-166.9 -168.8,-76.7 -15.4,23 -48,36.5 -84.4,36.5 -67.1,0 -67.1,1.9 67.1,161.1 40.3,48 69.1,94 63.3,103.6 -5.8,11.5 -67.1,-11.5 -134.3,-46 -117,-63.3 -126.6,-65.2 -209.1,-44.1 -46,13.4 -99.8,17.3 -120.9,9.6 -36.5,-13.4 -36.5,-15.4 0,-40.3 19.2,-15.3 46,-30.7 57.6,-34.5 15.4,-5.8 13.4,-19.2 -1.9,-48 -23,-36.5 -17.3,-46 61.4,-92.1 103.6,-59.5 119,-130.4 34.5,-151.6 -30.7,-5.8 -90.2,-28.8 -136.2,-51.8 -61.4,-28.8 -88.2,-34.5 -105.5,-17.3 -11.5,11.5 -53.7,21.1 -95.9,21.1 -71,0 -74.8,-3.8 -120.9,-105.5 -42.2,-92.1 -55.6,-105.5 -103.6,-105.5 -40.3,0 -69.1,-17.3 -101.7,-61.4 C 2345.1,828.9 2276,696.5 2276,650.5 c 0,-61.4 -11.5,-74.8 -145.8,-165 -122.8,-82.5 -180.3,-149.6 -180.3,-212.9 0,-19.2 17.3,-72.9 38.4,-119 44.1,-97.9 51.8,-209.1 13.4,-209.1 -36.5,0 -101.7,95.9 -130.5,189.9 -15.3,53.7 -40.3,88.3 -67.1,97.8 -23,9.6 -48,26.9 -55.6,36.4 -5.8,11.5 -42.2,21.1 -76.7,21.1 -48,0 -74.8,-11.5 -95.9,-44.1 -26.9,-42.2 -38.4,-46 -168.8,-36.5 -176.5,9.6 -224.5,-21.1 -270.5,-184.2 -69.1,-247.5 -24.9,-433.6 115.1,-481.5 113.2,-40.3 178.4,-17.3 212.9,74.8 24.9,59.5 42.2,76.7 103.6,92.1 l 74.8,19.2 v -71 c 0,-38.4 -17.3,-94 -38.4,-126.6 -72.9,-111.3 -49.9,-138.1 134.3,-147.7 l 86.3,-5.7 9.6,-138.1 c 13.4,-189.9 30.7,-205.3 241.7,-207.2 l 163.1,-3.8 80.6,88.3 c 78.7,88.2 82.5,88.2 147.7,65.2 36.5,-11.5 82.5,-23 99.8,-23 17.3,-1.9 46,-21.1 61.4,-42.2 24.9,-38.4 40.3,-40.3 157.3,-30.7 86.3,5.8 138.1,19.2 151.6,40.3 26.9,34.5 48,21.1 48,-28.8 0,-86.3 214.9,-247.5 330,-247.5 71,0 218.7,-136.2 234,-214.9 11.5,-57.5 28.8,-71 184.2,-143.9 109.4,-51.8 199.5,-82.5 245.6,-82.5 132.4,0 368.3,-153.5 368.3,-237.9 0,-15.4 -17.3,-65.2 -38.4,-115.1 -30.7,-67.1 -44.1,-159.2 -59.5,-379.9 -21.1,-310.8 -32.6,-341.5 -122.8,-341.5 -23,0 -57.6,-17.3 -76.7,-38.4 -19.1,-21.1 -49.9,-42.2 -69.1,-48 -42.2,-13.4 -69.1,-95.9 -40.3,-130.5 24.9,-30.7 -15.3,-259 -49.9,-280.1 -17.3,-11.5 -19.2,-28.8 -5.8,-65.2 17.3,-42.2 13.4,-55.6 -28.8,-88.3 -26.9,-21.1 -57.6,-40.3 -69.1,-44.1 -15.3,-5.8 -15.3,-19.2 1.9,-48 44.1,-84.4 7.7,-197.6 -65.2,-197.6 -24.9,0 -30.7,-11.5 -24.9,-48 7.7,-36.5 1.9,-48 -24.9,-48 -51.8,0 -44.1,-48 11.5,-72.9 48,-21.1 59.5,-44.1 36.5,-67.1 -5.8,-5.8 -15.3,-55.6 -19.2,-107.5 -7.7,-86.3 -1.9,-99.7 38.4,-126.6 36.4,-24.9 49.9,-55.6 61.4,-136.2 9.6,-82.5 28.8,-126.6 86.3,-201.4 82.5,-103.6 74.8,-109.4 -76.7,-65.2 -82.5,24.9 -111.3,46.1 -166.9,124.7 -38.4,53.7 -76.7,95.9 -84.4,95.9 -9.6,0 -21.1,17.3 -28.8,36.5 -5.8,21.1 -36.5,69.1 -67.1,107.4 -40.3,51.8 -53.7,84.4 -46,117 9.6,34.6 0,49.9 -46,72.9 -55.6,28.8 -111.3,132.4 -88.2,166.9 11.5,19.2 -38.4,119 -90.2,188 -24.9,30.7 -36.4,76.7 -36.4,138.1 0,65.2 -19.2,126.6 -65.2,222.5 -36.5,71 -84.4,209.1 -107.4,303.1 -80.6,343.4 -145.8,447 -358.8,567.9 -138.1,78.6 -247.5,176.5 -310.8,278.2 -28.8,42.2 -84.4,107.4 -124.7,142 -69.1,61.4 -72.9,69.1 -61.4,153.5 7.7,59.5 1.9,118.9 -17.3,172.7 -28.8,80.6 -28.8,86.3 19.2,157.3 72.9,111.3 86.3,157.3 65.2,232.1 -17.3,63.3 -101.7,166.9 -134.3,166.9 -9.6,0 -17.3,-17.3 -17.3,-38.4 0,-36.4 -11.5,-32.6 -143.9,34.5 -109.4,53.7 -163.1,95.9 -216.8,166.9 -57.6,74.8 -95.9,103.6 -205.3,147.7 -72.9,30.7 -189.9,69.1 -255.2,84.4 -182.3,42.2 -285.9,80.6 -387.5,143.9 -76.7,48 -92.1,67.1 -103.6,132.4 -5.8,42.2 -51.8,138.1 -99.8,214.9 -48,77.1 -120.9,196 -161.2,265.1 -134.3,228.2 -136.2,145.8 -3.9,-167 57.6,-136.2 57.6,-189.9 -1.9,-124.7 -61.4,71 -153.5,245.6 -151.6,289.7 1.9,24.9 -3.8,55.6 -13.4,67.1 -71,84.4 -57.5,408.6 36.5,878.7 147.7,732.8 470,1427.3 938.1,2016.3 132.4,166.9 481.5,533.3 562.1,590.9 l 51.8,38.4 28.8,-67.1 c 28.8,-67.1 90.2,-117 132.4,-101.7 13.4,3.8 21.1,34.5 17.3,74.8 -5.8,53.7 3.8,72.9 40.3,97.8 49.9,32.6 82.5,157.3 51.8,195.7 -11.5,13.4 34.5,55.6 140,128.5 166.9,115.1 178.4,120.9 224.4,92.1 z m 5168.3,-86.3 c 36.4,-26.9 36.4,-30.7 3.8,-101.7 -26.8,-59.5 -30.7,-99.8 -21.1,-186.1 24.9,-188 128.5,-266.7 401,-307 105.5,-17.3 115.1,7.7 40.3,117 -26.9,38.4 -48,95.9 -48,128.5 0,57.5 0,57.5 44.1,21.1 138.1,-115.1 272.4,-257.1 303.1,-324.2 21.1,-44.1 36.5,-61.4 36.5,-40.3 0,28.8 5.8,30.7 28.8,11.5 15.3,-13.4 28.8,-36.5 28.8,-49.9 0,-15.3 7.7,-24.9 17.3,-23 24.9,7.7 253.2,-270.5 402.9,-493 510.3,-750.1 782.7,-1578.9 821.1,-2494 11.5,-293.5 -15.3,-742.4 -51.8,-867.1 l -13.4,-53.7 -11.5,48 c -5.8,26.9 -11.5,61.4 -9.6,76.7 0,15.3 -19.2,76.7 -42.2,134.3 -24.9,57.6 -57.5,138.1 -72.9,178.4 -30.7,76.7 -71,109.4 -136.2,109.4 -26.8,0 -40.3,11.5 -40.3,36.5 0,55.6 -65.2,122.8 -174.6,184.2 -92.1,49.9 -119,53.7 -268.6,51.8 -122.8,-3.8 -172.7,3.8 -188,23 -13.4,15.4 -59.5,26.9 -115.1,26.9 -107.4,1.9 -207.2,38.4 -259,97.8 -21.1,21.1 -48,40.3 -61.4,40.3 -49.9,0 13.4,-117 90.1,-166.9 42.2,-26.9 74.8,-61.4 74.8,-76.7 0,-42.2 44.1,-48 120.8,-15.3 99.8,40.3 122.8,36.5 157.3,-28.8 17.3,-32.6 51.8,-67.1 76.7,-76.7 101.7,-38.4 23,-222.5 -147.7,-345.3 -142,-103.6 -406.7,-245.6 -479.6,-259 -38.4,-7.7 -84.4,-24.9 -103.6,-36.4 -26.9,-21.1 -28.8,-28.8 -5.8,-67.1 23,-34.5 36.5,-40.3 84.4,-28.8 32.6,7.7 90.2,15.3 130.4,17.3 38.4,1.9 88.3,19.2 105.5,36.5 90.2,80.6 82.5,-80.6 -11.5,-220.6 -157.3,-239.8 -191.8,-283.9 -353,-454.7 -92.1,-97.8 -174.6,-201.4 -182.2,-228.3 -5.8,-28.8 -1.9,-111.3 9.6,-182.3 30.7,-172.7 28.8,-274.3 -3.8,-337.6 -15.4,-28.8 -84.4,-105.5 -155.4,-170.8 -109.4,-101.7 -126.6,-126.6 -115.1,-163.1 36.5,-120.9 32.6,-138.1 -46.1,-216.8 -44.1,-40.3 -78.6,-92.1 -78.6,-111.3 0,-46.1 -178.4,-287.8 -245.6,-335.7 -72.9,-49.9 -228.3,-99.8 -312.7,-99.8 -78.7,0 -113.2,36.5 -113.2,118.9 0,24.9 -23,92.1 -49.9,149.6 -26.9,57.6 -67.1,178.4 -88.3,268.6 -21.1,90.2 -55.6,203.4 -76.7,255.1 -49.9,113.2 -40.3,251.3 23,339.6 36.5,49.9 40.3,69.1 21.1,107.4 -11.5,26.8 -15.3,80.6 -9.6,120.9 11.5,67.1 3.8,84.4 -86.3,195.7 -109.3,134.3 -143.9,224.4 -115.1,299.3 19.2,53.7 23,142 5.8,186.1 -7.7,19.2 -34.5,30.7 -78.7,30.7 -36.4,0 -103.6,23 -151.6,49.9 l -84.4,49.9 -69.1,-44.1 c -61.4,-36.5 -101.7,-44.1 -287.8,-48 l -216.8,-5.8 -46.1,55.6 c -24.9,28.8 -67.1,57.6 -92.1,61.4 -32.6,3.8 -57.6,28.8 -82.5,84.4 -19.2,42.2 -65.2,97.8 -99.8,122.8 -80.6,53.7 -99.8,122.8 -88.3,316.5 3.8,84.4 0,184.2 -11.5,222.6 -17.3,61.4 -9.6,84.4 61.4,220.6 55.6,105.5 101.7,168.8 157.3,209.1 53.7,38.4 84.4,76.7 92.1,117 7.7,32.6 51.8,109.3 97.8,170.7 103.6,132.4 111.3,199.5 34.5,257.1 -107.4,80.6 -107.4,80.6 -95.9,180.3 7.7,51.8 26.9,124.7 46.1,163.1 34.5,69.1 38.4,71 166.9,82.5 97.8,7.7 140,21.1 157.3,46 48,65.2 32.6,120.9 -49.9,174.6 -92.1,61.4 -97.8,84.4 -17.2,84.4 55.6,0 120.8,40.3 214.8,130.4 21.1,19.2 32.6,49.9 26.9,76.7 -5.8,32.6 3.8,49.9 42.2,71 28.8,13.4 92.1,69.1 142,122.8 80.6,84.4 90.2,105.5 90.2,182.3 0,48 9.6,92.1 19.2,97.8 11.5,7.7 19.2,-19.2 19.2,-65.2 0,-53.7 13.4,-92.1 38.4,-117 46.1,-46 53.7,-46 232.1,-7.7 161.2,34.5 209.1,74.8 209.1,170.7 0,55.6 7.7,65.2 53.7,71 40.3,3.8 49.9,15.3 46,44.1 -19.2,115.1 -19.2,115.1 78.7,117 95.9,1.9 151.6,30.7 117,65.2 -9.6,9.6 -72.9,24.9 -138.1,30.7 -209.1,23 -253.2,94 -174.6,276.3 44.1,103.6 42.2,159.2 -5.8,168.8 -34.5,5.8 -124.7,-161.1 -168.8,-316.5 -21.1,-71 -21.1,-86.3 17.3,-145.8 48,-78.7 49.9,-105.5 7.7,-151.6 -17.3,-19.2 -46,-76.7 -61.4,-126.6 -26.8,-80.6 -38.4,-90.2 -92.1,-95.9 -51.8,-5.8 -61.4,0 -51.8,24.9 13.4,32.6 -63.3,220.6 -88.2,220.6 -7.7,0 -24.9,-13.4 -38.4,-30.7 -36.5,-42.2 -88.2,-67.1 -120.9,-53.7 -38.4,13.4 -90.2,145.8 -90.2,228.3 0,71 23,99.8 134.3,168.8 42.2,26.9 86.3,80.6 117,145.8 46.1,92.1 63.3,155.4 103.6,358.8 17.3,90.2 257.1,266.7 370.3,272.4 109.4,7.7 157.3,-9.6 157.3,-51.8 0,-40.3 65.2,-71 191.8,-88.2 118.9,-17.3 165,-51.8 220.6,-163.1 57.5,-113.2 118.9,-134.3 95.9,-32.6 -26.9,111.3 -21.1,174.6 13.4,182.3 23,3.8 40.3,-11.5 53.7,-42.2 24.9,-67.1 44.1,-63.3 142,26.9 57.5,53.7 88.2,69.1 101.7,55.6 15.4,-15.3 32.6,-15.3 59.5,0 21.1,11.5 57.6,21.1 80.6,21.1 32.6,0 40.3,9.6 34.5,53.7 -5.8,49.9 -9.6,51.8 -115.1,51.8 -61.4,0 -118.9,9.6 -132.4,24.9 -13.4,11.5 -44.1,23 -69.1,23 -55.6,0 -90.2,78.7 -74.8,174.6 5.8,36.5 1.9,118.9 -7.7,180.3 -15.3,94 -13.4,126.6 15.3,186.1 37.1,78.7 52.4,86.4 108,44.2 z m -2434.5,-1168.3 134.3,-1.9 -1.9,-72.9 c -3.8,-132.4 -107.5,-199.5 -247.5,-165 -80.6,21.1 -84.4,24.9 -103.6,115.1 -25,115.1 -11.5,159.2 44.1,142 21.1,-7.8 101.7,-15.4 174.6,-17.3 z m 541,-700.3 c 13.4,-40.3 15.3,-61.4 0,-76.7 -15.3,-15.4 -1.9,-46 40.3,-105.5 34.5,-46 61.4,-90.2 61.4,-97.8 0,-7.6 15.4,-32.6 34.5,-57.6 38.4,-48 42.2,-151.6 7.7,-155.4 -13.4,-1.9 -40.3,-3.8 -61.4,-5.8 -19.2,0 -67.1,-32.6 -103.6,-69.1 -99.8,-99.8 -115.1,-90.2 -101.7,61.4 9.6,88.2 25,140 51.8,168.8 51.8,55.6 48,80.6 -19.2,138.1 -65.2,53.7 -76.7,142 -26.8,212.9 40.3,59.6 90.2,53.9 117,-13.3 z m -165,-216.8 c 7.7,-107.4 -9.6,-182.3 -51.8,-226.4 -69.1,-71 -113.2,-36.5 -115.1,92.1 -1.9,95.9 0,99.8 67.1,126.6 86.4,36.5 97.9,36.5 99.8,7.7 z M 2130.2,50 c -7.7,-15.3 -19.2,-28.8 -28.8,-28.8 -9.6,0 -17.3,13.4 -17.3,28.8 0,15.4 13.4,28.8 28.8,28.8 17.3,0 23.1,-11.5 17.3,-28.8 z m -32.6,-166.9 c -5.8,-13.4 -9.6,-3.8 -9.6,23 0,26.9 3.8,36.5 9.6,24.9 3.8,-13.4 3.8,-36.4 0,-47.9 z m 142,-11.5 c 28.8,-72.9 7.7,-71 -36.5,3.8 -30.7,51.8 -32.6,65.2 -11.5,55.6 17.3,-5.7 38.4,-32.5 48,-59.4 z M 2066.9,-232 c 67.1,-34.5 143.9,-71 168.8,-82.5 86.3,-34.5 71,-67.1 -32.6,-67.1 -71,0 -101.7,9.6 -130.5,40.3 -57.6,63.3 -132.4,94 -228.3,94 -99.8,0 -101.7,26.9 -3.8,55.6 92.1,26.8 94,26.8 226.4,-40.3 z m 483.5,-191.9 42.2,-44.1 -95.9,-13.4 c -140,-17.3 -188,-17.3 -220.6,3.8 -24.9,17.3 -23,24.9 17.3,57.6 63.2,55.6 199.4,51.8 257,-3.9 z m 176.5,-34.5 c 5.8,-9.6 5.8,-19.2 -3.8,-19.2 -7.7,0 -36.5,-5.8 -63.3,-11.5 -46,-9.6 -46,-9.6 -11.5,19.2 44,36.5 61.3,38.4 78.6,11.5 z m -566,-36.4 c 0,-21.1 -49.9,-42.2 -65.2,-26.9 -23,23 -9.6,44.1 26.9,44.1 21.1,0 38.3,-7.6 38.3,-17.2 z m 786.6,-99.8 c 0,-34.5 -3.8,-36.5 -28.8,-17.3 -28.8,23 -23,57.5 11.5,57.5 9.6,0.1 17.3,-19.1 17.3,-40.2 z m 1561.6,-1139.6 c 5.8,-17.3 0,-28.8 -17.3,-28.8 -15.3,0 -28.8,13.4 -28.8,28.8 0,15.4 7.7,28.8 17.3,28.8 9.6,0 21.1,-13.4 28.8,-28.8 z M 8330.6,-2043 c -11.5,-101.7 -165,-527.6 -207.2,-579.4 -32.6,-38.4 -113.2,-19.2 -155.4,38.4 -38.4,49.9 -38.4,49.9 0,115.1 21.1,34.5 53.7,103.6 72.9,155.4 21.1,55.6 46.1,90.2 65.2,92.1 30.7,0 109.3,97.8 184.2,224.4 21.1,32.6 40.3,61.4 46,61.4 3.9,0 2,-48 -5.7,-107.4 z m -4163,-2281.1 c -36.5,-26.9 -69.1,-23 -69.1,11.5 0,9.6 23,17.3 53.7,17.3 49.9,-1.9 49.9,-1.9 15.4,-28.8 z" />
          <path
             inkscape:connector-curvature="0"
             style="fill:#ffffff;fill-opacity:1"
             id="path1046"
             d="m 3805,4483.6 c -5.8,-15.4 0,-36.5 13.4,-48 21.1,-17.3 28.8,-11.5 34.5,26.9 11.6,51.8 -30.6,69 -47.9,21.1 z" />
          <path
             inkscape:connector-curvature="0"
             style="fill:#ffffff;fill-opacity:1"
             id="path1048"
             d="m 1547,3321 c 0,-48 7.7,-57.6 44.1,-57.6 63.3,0 72.9,17.3 38.4,69.1 -42.2,65.2 -82.5,59.5 -82.5,-11.5 z" />
          <path
             inkscape:connector-curvature="0"
             style="fill:#ffffff;fill-opacity:1"
             id="path1050"
             d="m 1944.1,1471.6 c -26.9,-21.1 -28.8,-28.8 -7.7,-36.4 28.8,-9.6 71,19.2 71,48 0,22.9 -23,17.2 -63.3,-11.6 z" />
          <path
             inkscape:connector-curvature="0"
             style="fill:#ffffff;fill-opacity:1"
             id="path1052"
             d="m 1830.9,1465.8 c -19.2,-3.8 -34.5,-17.3 -34.5,-26.9 0,-26.9 30.7,-21.1 57.6,11.5 13.4,15.3 21.1,26.9 17.3,26.9 -3.9,-1.9 -23.1,-5.7 -40.4,-11.5 z" />
          <path
             inkscape:connector-curvature="0"
             style="fill:#ffffff;fill-opacity:1"
             id="path1054"
             d="m 2063.1,1350.7 c -5.8,-42.2 7.7,-132.4 19.2,-145.8 23,-23 55.6,26.9 63.3,92.1 3.8,48 -1.9,59.5 -36.5,63.3 -24.9,3.9 -44.1,0 -46,-9.6 z" />
          <path
             inkscape:connector-curvature="0"
             style="fill:#ffffff;fill-opacity:1"
             id="path1056"
             d="m 1854,1180 c -11.5,-26.9 -19.2,-67.1 -19.2,-88.2 0,-65.2 51.8,-5.8 61.4,71 9.6,78.6 -15.4,88.2 -42.2,17.2 z" />
          <path
             inkscape:connector-curvature="0"
             style="fill:#ffffff;fill-opacity:1"
             id="path1058"
             d="m 7283.2,2991 c -36.5,-9.6 -72.9,-28.8 -80.6,-40.3 -23,-34.5 1.9,-132.4 44.1,-174.6 46,-49.9 69.1,-24.9 36.5,36.4 -19.2,38.4 -21.1,53.7 -3.8,71 17.3,17.3 28.8,17.3 46,0 15.4,-15.4 26.8,-9.6 48,28.8 51.8,99.8 34.5,115.2 -90.2,78.7 z" />
          <path
             inkscape:connector-curvature="0"
             style="fill:#ffffff;fill-opacity:1"
             id="path1060"
             d="m 7505.7,1446.6 c -7.7,-17.3 0,-44.1 17.3,-63.3 38.4,-42.2 36.5,-63.3 -5.8,-101.7 -46,-42.2 -130.4,-42.2 -155.4,1.9 -23,38.4 -65.2,19.2 -122.8,-57.6 -28.8,-38.4 -32.6,-57.6 -15.3,-88.2 17.3,-32.6 30.7,-36.5 76.7,-23 28.8,7.7 72.9,24.9 97.8,38.4 34.5,19.2 57.6,15.3 134.3,-17.3 157.3,-67.1 268.6,-48 268.6,48 0,28.8 -19.2,49.9 -57.5,65.2 -92.1,38.4 -149.6,92.1 -163.1,151.6 -13.4,65.2 -57.5,90.2 -74.8,46 z" />
          <path
             inkscape:connector-curvature="0"
             style="fill:#ffffff;fill-opacity:1"
             id="path1062"
             d="m 6513.9,1233.7 c 26.8,-49.9 80.6,-92.1 161.1,-124.7 128.5,-55.6 61.4,48 -80.6,120.9 -93.9,47.9 -103.5,47.9 -80.5,3.8 z" />
          <path
             inkscape:connector-curvature="0"
             style="fill:#ffffff;fill-opacity:1"
             id="path1064"
             d="m 6304.8,1093.6 c 0,-13.4 -38.4,-19.2 -109.4,-13.4 -105.5,5.8 -111.3,3.8 -182.3,-71 -40.3,-42.2 -80.6,-107.4 -92.1,-145.8 -21.1,-78.7 -67.1,-124.7 -168.8,-172.7 -42.2,-19.2 -57.6,-34.5 -36.5,-34.5 19.2,-1.9 88.3,24.9 153.5,59.5 107.5,53.7 140,61.4 335.7,69.1 153.5,5.8 224.5,1.9 239.8,-13.4 13.4,-13.4 23,-67.1 23,-122.8 v -99.8 l 67.1,-5.8 c 36.5,-3.8 88.2,-26.9 115.1,-49.9 71,-65.2 140,-107.4 172.7,-107.4 23,0 28.8,17.3 23,76.7 -5.8,55.6 0,78.7 21.1,88.3 17.3,5.8 111.3,-11.5 211,-38.4 218.7,-59.5 280.1,-61.4 379.8,-11.5 120.9,63.3 151.6,103.6 151.6,201.4 0,48 -3.8,86.3 -9.6,86.3 -3.8,0 -51.8,-17.3 -107.4,-38.4 -122.8,-48 -209.1,-36.4 -310.8,46 -51.8,40.3 -80.6,82.5 -95.9,140.1 -23,88.2 -42.2,97.8 -97.9,57.6 -34.5,-24.9 -34.5,-28.8 -3.8,-53.7 92.1,-74.8 103.6,-92.1 94,-130.5 -7.7,-32.6 -24.9,-40.3 -94,-40.3 -46.1,0 -84.4,7.7 -84.4,19.2 0,30.7 -117,153.5 -145.8,153.5 -15.4,0 -26.9,-15.3 -26.9,-32.6 0,-55.6 -97.8,-178.4 -142,-178.4 -90.2,0 -122.8,101.7 -40.3,122.8 38.4,9.6 48,24.9 48,69.1 0,44.2 -13.4,63.3 -61.4,88.3 -34.5,17.3 -84.4,48 -109.4,67.1 -49.6,40.3 -116.7,48 -116.7,15.3 z m 57.5,-124.7 c 0,-74.8 -24.9,-95.9 -65.2,-53.7 -36.4,34.5 -38.4,72.9 -9.6,124.7 28.8,55.7 74.8,11.5 74.8,-71 z" />
          <path
             inkscape:connector-curvature="0"
             style="fill:#ffffff;fill-opacity:1"
             id="path1066"
             d="m 7578.6,243.8 c -13.4,-55.6 28.8,-159.2 103.6,-255.2 30.7,-40.3 80.6,-138.1 109.4,-216.8 74.8,-205.3 239.8,-370.3 239.8,-239.8 0,63.3 -44.1,166.9 -103.6,245.6 -26.8,36.5 -59.5,92.1 -71,126.6 -13.4,34.5 -51.8,105.5 -86.3,159.2 -36.5,51.8 -65.2,107.4 -65.2,118.9 0,24.9 -78.7,107.4 -101.7,107.4 -7.7,0.1 -17.3,-21 -25,-45.9 z" />
        </g>
      </g>
      <ellipse
         cx="63.399158"
         cy="54.873302"
         rx="129.11655"
         ry="129.51292"
         id="path1652"
         style="fill:none;fill-opacity:1;stroke:#2e4260;stroke-width:6.26113129;stroke-miterlimit:0;stroke-dasharray:none;stroke-opacity:1" />
      <rect
         y="98.161499"
         x="-20.434006"
         height="16.64772"
         width="165.68446"
         id="rect1656"
         style="fill:#2e4260;fill-opacity:1;stroke:none;stroke-width:6.3499999;stroke-miterlimit:0;stroke-dasharray:none;stroke-opacity:1" />
      <path
         style="fill:#2e4260;fill-opacity:1;stroke-width:0.31572044"
         id="path1729"
         d="m 128.52845,-0.16552279 c -0.58047,0.0028 -1.16094,0.01648 -1.74141,0.04396 -4.78885,0.20057 -9.7591,1.044072 -13.35075,2.40136899 l -0.0725,0.03297 L 11.419197,35.341219 9.9317493,34.626859 c -7.480774,-3.65426 -15.291689,-7.36347 -26.7885733,-8.81968 0.75098,1.29136 1.683356,2.72009 2.815267,4.25873 2.427081,3.2696 5.5362083,6.95133 8.6163153,10.33083 3.080104,3.35203 6.15295404,6.40182 8.420404,8.35259 0.874329,0.76932 1.458426,1.18145 1.966333,1.53864 l 62.4728077,-18.84828 -0.43535,3.95649 c -1.34233,12.19917 -4.09955,24.61816 -8.52562,37.28442 l 10.33958,-5.22037 c 11.82703,-14.14995 15.78146,-23.95874 25.75824,-43.21915 l 0.43535,-0.82427 33.195487,-13.8751948 h 0.0725 c 8.30794,-3.15695 11.89958,-5.948474 12.48005,-6.967818 0.29024,-0.511048 0.21768,-0.376418 0.0726,-0.560504 -0.14512,-0.181338 -0.83442,-0.656667 -2.10419,-1.05780999 -1.95908,-0.604464 -5.00653,-1.022093 -8.45306,-1.107268 -0.54419,-0.01373 -1.16094,-0.01924 -1.7414,-0.01373 z M 25.858274,3.0601152 17.840568,4.2690442 48.496503,17.949156 70.300313,10.887922 C 57.929103,7.9645142 44.433233,5.2224462 25.858274,3.0601152 Z M -20.434004,101.94214 v 4.94561 H 142.09687 v -4.94561 z"
         inkscape:connector-curvature="0" />
    </g>
  </g>
</svg>
